<svg xmlns="http://www.w3.org/2000/svg" viewBox="33.42 17.49 82.23 90.77" >
<path style="fill:#64748b; stroke:none;"   d="M39 81C28.6887 84.4112 34.4367 102.799 42.0008 106.427C46.8401 108.749 52.7934 108 58 108L84 108C88.049 108 93.0111 108.761 96.9414 107.682C101.069 106.549 100.975 102.564 100.999 99C101.029 94.6877 101.221 90.2887 100.715 86C100.318 82.6385 99.1787 78.4146 100.603 75.1481C103.215 69.1598 111.999 74.843 114.914 69.6867C119.634 61.3354 100.207 66.5229 100.207 61C100.207 56.2207 110.993 58.8024 113.677 56.9722C116.3 55.1847 115.568 51.798 112.851 50.6034C108.283 48.5952 102.585 51.4779 98.108 48.9722C94.2943 46.838 93.1165 41.6271 91.2153 38C88.1449 32.1424 84.0184 26.6247 78.9961 22.3009C76.3957 20.0621 71.072 15.3307 67.6034 18.6188C65.9432 20.1926 66.0053 22.9062 65.7191 25C64.6224 33.0254 66.2251 36.1096 73 40.4637C75.103 41.8153 80.6505 45.2347 78.2485 48.3974C76.908 50.1623 73.9433 49.9588 72 49.9954C67.0015 50.0894 61.9985 49.9106 57 50.0046C54.3409 50.0547 49.6436 50.1615 49.7515 53.9498C49.8766 58.3383 56.0346 57.9836 59 57.9992L80 58.0008C82.2282 58.0161 86.6412 57.5681 87.6543 60.2593C89.1242 64.1638 81.986 63.9856 80 63.9992C71.8034 64.0556 63.1593 63.1692 55.0154 64.1088C52.3589 64.4153 48.2929 66.2884 50.1366 69.6975C51.9272 73.0086 57.9296 71.9998 61 72C71.3712 72.0007 97.7496 66.9327 92.6821 84.8912C91.0769 90.5799 82.4866 89 78 89C66.0378 89 45.6059 93.4345 39 81z"/>
</svg>